<mxfile host="app.diagrams.net" modified="2021-11-16T00:42:50.096Z" agent="5.0 (Windows NT 10.0; Win64; x64) AppleWebKit/537.36 (KHTML, like Gecko) Chrome/96.0.4664.45 Safari/537.36" etag="M5rbiog8Ysh4L4oIEP44" version="15.7.3" type="github" pages="2">
  <diagram name="Page-1" id="64c3da0e-402f-94eb-ee01-a36477274f13">
    <mxGraphModel dx="1274" dy="2109" grid="1" gridSize="10" guides="1" tooltips="1" connect="1" arrows="1" fold="1" page="1" pageScale="1" pageWidth="1169" pageHeight="826" background="none" math="0" shadow="0">
      <root>
        <mxCell id="0" />
        <mxCell id="1" parent="0" />
        <mxCell id="jsKrFUnNUoFfjtstZBAS-248" value="" style="group" vertex="1" connectable="0" parent="1">
          <mxGeometry x="40" y="35" width="1147" height="756.0000000000001" as="geometry" />
        </mxCell>
        <mxCell id="2" value="HOME PAGE" style="whiteSpace=wrap;rounded=1;shadow=1;fillColor=#10739E;strokeColor=none;fontColor=#FFFFFF;fontStyle=1;fontSize=30;" parent="jsKrFUnNUoFfjtstZBAS-248" vertex="1">
          <mxGeometry x="390" width="340" height="60" as="geometry" />
        </mxCell>
        <mxCell id="229" value="" style="edgeStyle=elbowEdgeStyle;elbow=vertical;rounded=0;fontColor=#000000;endArrow=none;endFill=0;strokeWidth=8;strokeColor=#23445D;" parent="jsKrFUnNUoFfjtstZBAS-248" source="2" target="3" edge="1">
          <mxGeometry width="100" height="100" relative="1" as="geometry">
            <mxPoint x="130" y="100" as="sourcePoint" />
            <mxPoint x="230" as="targetPoint" />
          </mxGeometry>
        </mxCell>
        <mxCell id="230" value="" style="edgeStyle=elbowEdgeStyle;elbow=vertical;rounded=0;fontColor=#000000;endArrow=none;endFill=0;strokeWidth=8;strokeColor=#23445D;" parent="jsKrFUnNUoFfjtstZBAS-248" source="2" target="4" edge="1">
          <mxGeometry width="100" height="100" relative="1" as="geometry">
            <mxPoint x="140" y="110" as="sourcePoint" />
            <mxPoint x="240" y="10" as="targetPoint" />
          </mxGeometry>
        </mxCell>
        <mxCell id="231" value="" style="edgeStyle=elbowEdgeStyle;elbow=vertical;rounded=0;fontColor=#000000;endArrow=none;endFill=0;strokeWidth=8;strokeColor=#23445D;" parent="jsKrFUnNUoFfjtstZBAS-248" source="2" target="6" edge="1">
          <mxGeometry width="100" height="100" relative="1" as="geometry">
            <mxPoint x="150" y="120" as="sourcePoint" />
            <mxPoint x="250" y="20" as="targetPoint" />
          </mxGeometry>
        </mxCell>
        <mxCell id="232" value="" style="edgeStyle=elbowEdgeStyle;elbow=vertical;rounded=0;fontColor=#000000;endArrow=none;endFill=0;strokeWidth=8;strokeColor=#23445D;" parent="jsKrFUnNUoFfjtstZBAS-248" source="2" target="7" edge="1">
          <mxGeometry width="100" height="100" relative="1" as="geometry">
            <mxPoint x="160" y="130" as="sourcePoint" />
            <mxPoint x="260" y="30" as="targetPoint" />
          </mxGeometry>
        </mxCell>
        <mxCell id="233" value="" style="edgeStyle=elbowEdgeStyle;elbow=vertical;rounded=0;fontColor=#000000;endArrow=none;endFill=0;strokeWidth=8;strokeColor=#23445D;" parent="jsKrFUnNUoFfjtstZBAS-248" source="2" target="8" edge="1">
          <mxGeometry width="100" height="100" relative="1" as="geometry">
            <mxPoint x="170" y="140" as="sourcePoint" />
            <mxPoint x="270" y="40" as="targetPoint" />
          </mxGeometry>
        </mxCell>
        <mxCell id="jsKrFUnNUoFfjtstZBAS-243" value="" style="group" vertex="1" connectable="0" parent="jsKrFUnNUoFfjtstZBAS-248">
          <mxGeometry y="129.9999999999998" width="140" height="626.0000000000003" as="geometry" />
        </mxCell>
        <mxCell id="3" value="로그인" style="whiteSpace=wrap;rounded=1;fillColor=#F2931E;strokeColor=none;shadow=1;fontColor=#FFFFFF;fontStyle=1;fontSize=20;" parent="jsKrFUnNUoFfjtstZBAS-243" vertex="1">
          <mxGeometry width="140" height="60" as="geometry" />
        </mxCell>
        <mxCell id="10" value="내 정보&#xa;(MY PAGE)" style="whiteSpace=wrap;rounded=1;fillColor=#12AAB5;strokeColor=none;shadow=1;fontColor=#FFFFFF;fontSize=16;" parent="jsKrFUnNUoFfjtstZBAS-243" vertex="1">
          <mxGeometry x="10" y="110.00000000000031" width="120" height="60" as="geometry" />
        </mxCell>
        <mxCell id="23" value="회원탈퇴" style="whiteSpace=wrap;rounded=1;fillColor=#999999;strokeColor=none;shadow=1;fontColor=#FFFFFF;fontStyle=0;fontSize=13;" parent="jsKrFUnNUoFfjtstZBAS-243" vertex="1">
          <mxGeometry x="20" y="190.0000000000003" width="100" height="40" as="geometry" />
        </mxCell>
        <mxCell id="24" value="프로필 등록/수정" style="whiteSpace=wrap;rounded=1;fillColor=#999999;strokeColor=none;shadow=1;fontColor=#FFFFFF;fontStyle=0;fontSize=13;" parent="jsKrFUnNUoFfjtstZBAS-243" vertex="1">
          <mxGeometry x="20" y="269.0000000000002" width="100" height="40" as="geometry" />
        </mxCell>
        <mxCell id="25" value="게시물 관리" style="whiteSpace=wrap;rounded=1;fillColor=#999999;strokeColor=none;shadow=1;fontColor=#FFFFFF;fontStyle=0;fontSize=13;" parent="jsKrFUnNUoFfjtstZBAS-243" vertex="1">
          <mxGeometry x="20" y="348.0000000000002" width="100" height="40" as="geometry" />
        </mxCell>
        <mxCell id="26" value="운동 기록 일지" style="whiteSpace=wrap;rounded=1;fillColor=#999999;strokeColor=none;shadow=1;fontColor=#FFFFFF;fontStyle=0;fontSize=13;" parent="jsKrFUnNUoFfjtstZBAS-243" vertex="1">
          <mxGeometry x="20" y="428.0000000000002" width="100" height="40" as="geometry" />
        </mxCell>
        <mxCell id="27" value="업체 등록/수정/삭제" style="whiteSpace=wrap;rounded=1;fillColor=#999999;strokeColor=none;shadow=1;fontColor=#FFFFFF;fontStyle=0;fontSize=13;" parent="jsKrFUnNUoFfjtstZBAS-243" vertex="1">
          <mxGeometry x="20" y="507.0000000000002" width="100" height="40" as="geometry" />
        </mxCell>
        <mxCell id="103" value="" style="edgeStyle=elbowEdgeStyle;elbow=vertical;rounded=0;fontColor=#000000;endArrow=none;endFill=0;strokeWidth=8;strokeColor=#23445D;" parent="jsKrFUnNUoFfjtstZBAS-243" source="3" target="10" edge="1">
          <mxGeometry x="320" y="169.9999999999998" width="100" height="100" as="geometry">
            <mxPoint x="-140" y="120.0000000000002" as="sourcePoint" />
            <mxPoint x="-40" y="20.0000000000002" as="targetPoint" />
          </mxGeometry>
        </mxCell>
        <mxCell id="9OUrm7MxRyDZbP5OYTRy-234" value="트레이너 등록/수정/삭제" style="whiteSpace=wrap;rounded=1;fillColor=#999999;strokeColor=none;shadow=1;fontColor=#FFFFFF;fontStyle=0;fontSize=13;" vertex="1" parent="jsKrFUnNUoFfjtstZBAS-243">
          <mxGeometry x="20" y="586.0000000000003" width="100" height="40" as="geometry" />
        </mxCell>
        <mxCell id="105" value="" style="edgeStyle=elbowEdgeStyle;elbow=horizontal;rounded=0;fontColor=#000000;endArrow=none;endFill=0;strokeWidth=8;strokeColor=#23445D;" parent="jsKrFUnNUoFfjtstZBAS-243" source="10" target="23" edge="1">
          <mxGeometry x="320" y="169.9999999999998" width="100" height="100" as="geometry">
            <mxPoint x="-40" y="280.0000000000002" as="sourcePoint" />
            <mxPoint x="60" y="180.0000000000002" as="targetPoint" />
            <Array as="points">
              <mxPoint y="180.0000000000002" />
            </Array>
          </mxGeometry>
        </mxCell>
        <mxCell id="106" value="" style="edgeStyle=elbowEdgeStyle;elbow=horizontal;rounded=0;fontColor=#000000;endArrow=none;endFill=0;strokeWidth=8;strokeColor=#23445D;" parent="jsKrFUnNUoFfjtstZBAS-243" source="10" target="24" edge="1">
          <mxGeometry x="320" y="169.9999999999998" width="100" height="100" as="geometry">
            <mxPoint x="30" y="140.0000000000002" as="sourcePoint" />
            <mxPoint x="30" y="240.0000000000002" as="targetPoint" />
            <Array as="points">
              <mxPoint y="200.0000000000002" />
            </Array>
          </mxGeometry>
        </mxCell>
        <mxCell id="110" value="" style="edgeStyle=elbowEdgeStyle;elbow=horizontal;rounded=0;fontColor=#000000;endArrow=none;endFill=0;strokeWidth=8;strokeColor=#23445D;" parent="jsKrFUnNUoFfjtstZBAS-243" source="10" target="25" edge="1">
          <mxGeometry x="320" y="169.9999999999998" width="100" height="100" as="geometry">
            <mxPoint x="60" y="170.0000000000002" as="sourcePoint" />
            <mxPoint x="60" y="270.0000000000002" as="targetPoint" />
            <Array as="points">
              <mxPoint y="230.0000000000002" />
            </Array>
          </mxGeometry>
        </mxCell>
        <mxCell id="109" value="" style="edgeStyle=elbowEdgeStyle;elbow=horizontal;rounded=0;fontColor=#000000;endArrow=none;endFill=0;strokeWidth=8;strokeColor=#23445D;" parent="jsKrFUnNUoFfjtstZBAS-243" source="10" target="26" edge="1">
          <mxGeometry x="320" y="169.9999999999998" width="100" height="100" as="geometry">
            <mxPoint x="50" y="160.0000000000002" as="sourcePoint" />
            <mxPoint x="50" y="260.0000000000002" as="targetPoint" />
            <Array as="points">
              <mxPoint y="210.0000000000002" />
            </Array>
          </mxGeometry>
        </mxCell>
        <mxCell id="107" value="" style="edgeStyle=elbowEdgeStyle;elbow=horizontal;rounded=0;fontColor=#000000;endArrow=none;endFill=0;strokeWidth=8;strokeColor=#23445D;" parent="jsKrFUnNUoFfjtstZBAS-243" source="10" target="27" edge="1">
          <mxGeometry x="320" y="169.9999999999998" width="100" height="100" as="geometry">
            <mxPoint x="30" y="140.0000000000002" as="sourcePoint" />
            <mxPoint x="30" y="240.0000000000002" as="targetPoint" />
            <Array as="points">
              <mxPoint y="340.0000000000002" />
            </Array>
          </mxGeometry>
        </mxCell>
        <mxCell id="9OUrm7MxRyDZbP5OYTRy-235" value="" style="edgeStyle=elbowEdgeStyle;elbow=horizontal;rounded=0;fontColor=#000000;endArrow=none;endFill=0;strokeWidth=8;strokeColor=#23445D;exitX=0;exitY=0.5;exitDx=0;exitDy=0;entryX=0;entryY=0.5;entryDx=0;entryDy=0;" edge="1" parent="jsKrFUnNUoFfjtstZBAS-243" source="10" target="9OUrm7MxRyDZbP5OYTRy-234">
          <mxGeometry x="320" y="169.9999999999998" width="100" height="100" as="geometry">
            <mxPoint x="19.999999999999773" y="176.0000000000002" as="sourcePoint" />
            <mxPoint x="20.000000000000114" y="596.0000000000002" as="targetPoint" />
            <Array as="points">
              <mxPoint y="396.0000000000002" />
            </Array>
          </mxGeometry>
        </mxCell>
        <mxCell id="jsKrFUnNUoFfjtstZBAS-244" value="" style="group" vertex="1" connectable="0" parent="jsKrFUnNUoFfjtstZBAS-248">
          <mxGeometry x="240" y="129.9999999999998" width="162" height="379.00000000000034" as="geometry" />
        </mxCell>
        <mxCell id="4" value="회원가입" style="whiteSpace=wrap;rounded=1;fillColor=#F2931E;strokeColor=none;shadow=1;fontColor=#FFFFFF;fontStyle=1;fontSize=20;" parent="jsKrFUnNUoFfjtstZBAS-244" vertex="1">
          <mxGeometry x="22" width="140" height="60" as="geometry" />
        </mxCell>
        <mxCell id="43" value="일반회원" style="whiteSpace=wrap;rounded=1;fillColor=#12AAB5;strokeColor=none;shadow=1;fontColor=#FFFFFF;fontSize=16;" parent="jsKrFUnNUoFfjtstZBAS-244" vertex="1">
          <mxGeometry x="32" y="110.00000000000031" width="120" height="60" as="geometry" />
        </mxCell>
        <mxCell id="44" value="트레이너" style="whiteSpace=wrap;rounded=1;fillColor=#12AAB5;strokeColor=none;shadow=1;fontColor=#FFFFFF;fontSize=16;" parent="jsKrFUnNUoFfjtstZBAS-244" vertex="1">
          <mxGeometry x="32" y="319.00000000000034" width="120" height="60" as="geometry" />
        </mxCell>
        <mxCell id="116" value="" style="edgeStyle=elbowEdgeStyle;elbow=vertical;rounded=0;fontColor=#000000;endArrow=none;endFill=0;strokeWidth=8;strokeColor=#23445D;exitX=0;exitY=0.5;exitDx=0;exitDy=0;entryX=0;entryY=0.5;entryDx=0;entryDy=0;" parent="jsKrFUnNUoFfjtstZBAS-244" source="4" target="43" edge="1">
          <mxGeometry width="100" height="100" as="geometry">
            <mxPoint x="-218" y="69.99999999999997" as="sourcePoint" />
            <mxPoint x="-318" y="140.0000000000002" as="targetPoint" />
            <Array as="points">
              <mxPoint y="85.0000000000002" />
            </Array>
          </mxGeometry>
        </mxCell>
        <mxCell id="117" value="" style="edgeStyle=elbowEdgeStyle;elbow=vertical;rounded=0;fontColor=#000000;endArrow=none;endFill=0;strokeWidth=8;strokeColor=#23445D;exitX=0;exitY=0.5;exitDx=0;exitDy=0;entryX=0;entryY=0.5;entryDx=0;entryDy=0;" parent="jsKrFUnNUoFfjtstZBAS-244" source="4" target="44" edge="1">
          <mxGeometry width="100" height="100" as="geometry">
            <mxPoint x="-218" y="69.99999999999997" as="sourcePoint" />
            <mxPoint x="-118" y="140.0000000000002" as="targetPoint" />
            <Array as="points">
              <mxPoint y="200.0000000000002" />
            </Array>
          </mxGeometry>
        </mxCell>
        <mxCell id="9OUrm7MxRyDZbP5OYTRy-240" value="헬스장 업주" style="whiteSpace=wrap;rounded=1;fillColor=#12AAB5;strokeColor=none;shadow=1;fontColor=#FFFFFF;fontSize=16;" vertex="1" parent="jsKrFUnNUoFfjtstZBAS-244">
          <mxGeometry x="32" y="214.0000000000002" width="120" height="60" as="geometry" />
        </mxCell>
        <mxCell id="9OUrm7MxRyDZbP5OYTRy-242" value="" style="edgeStyle=elbowEdgeStyle;elbow=vertical;rounded=0;fontColor=#000000;endArrow=none;endFill=0;strokeWidth=8;strokeColor=#23445D;exitX=0;exitY=0.5;exitDx=0;exitDy=0;entryX=0;entryY=0.5;entryDx=0;entryDy=0;" edge="1" parent="jsKrFUnNUoFfjtstZBAS-244" source="4" target="9OUrm7MxRyDZbP5OYTRy-240">
          <mxGeometry width="100" height="100" as="geometry">
            <mxPoint x="102" y="69.99999999999997" as="sourcePoint" />
            <mxPoint x="251.99999999999977" y="140.0000000000002" as="targetPoint" />
            <Array as="points">
              <mxPoint y="138.0000000000002" />
            </Array>
          </mxGeometry>
        </mxCell>
        <mxCell id="jsKrFUnNUoFfjtstZBAS-245" value="" style="group" vertex="1" connectable="0" parent="jsKrFUnNUoFfjtstZBAS-248">
          <mxGeometry x="469" y="129.9999999999998" width="161" height="379.00000000000034" as="geometry" />
        </mxCell>
        <mxCell id="6" value="검색" style="whiteSpace=wrap;rounded=1;fillColor=#F2931E;strokeColor=none;shadow=1;fontColor=#FFFFFF;fontStyle=1;fontSize=20;" parent="jsKrFUnNUoFfjtstZBAS-245" vertex="1">
          <mxGeometry x="21" width="140" height="60" as="geometry" />
        </mxCell>
        <mxCell id="133" value="헬스장 검색" style="whiteSpace=wrap;rounded=1;fillColor=#12AAB5;strokeColor=none;shadow=1;fontColor=#FFFFFF;fontSize=16;" parent="jsKrFUnNUoFfjtstZBAS-245" vertex="1">
          <mxGeometry x="31" y="110.00000000000031" width="120" height="60" as="geometry" />
        </mxCell>
        <mxCell id="134" value="지역 검색" style="whiteSpace=wrap;rounded=1;fillColor=#12AAB5;strokeColor=none;shadow=1;fontColor=#FFFFFF;fontSize=16;" parent="jsKrFUnNUoFfjtstZBAS-245" vertex="1">
          <mxGeometry x="31" y="319.00000000000034" width="120" height="60" as="geometry" />
        </mxCell>
        <mxCell id="221" value="" style="edgeStyle=elbowEdgeStyle;elbow=vertical;rounded=0;fontColor=#000000;endArrow=none;endFill=0;strokeWidth=8;strokeColor=#23445D;entryX=0;entryY=0.5;entryDx=0;entryDy=0;exitX=0;exitY=0.5;exitDx=0;exitDy=0;" parent="jsKrFUnNUoFfjtstZBAS-245" source="6" target="133" edge="1">
          <mxGeometry width="100" height="100" relative="1" as="geometry">
            <mxPoint x="-99" y="100.0000000000002" as="sourcePoint" />
            <mxPoint x="1" y="1.9895196601282805e-13" as="targetPoint" />
            <Array as="points">
              <mxPoint x="1" y="80.0000000000002" />
              <mxPoint y="90.0000000000002" />
            </Array>
          </mxGeometry>
        </mxCell>
        <mxCell id="222" value="" style="edgeStyle=elbowEdgeStyle;elbow=vertical;rounded=0;fontColor=#000000;endArrow=none;endFill=0;strokeWidth=8;strokeColor=#23445D;exitX=0;exitY=0.5;exitDx=0;exitDy=0;entryX=0;entryY=0.5;entryDx=0;entryDy=0;" parent="jsKrFUnNUoFfjtstZBAS-245" source="6" target="134" edge="1">
          <mxGeometry width="100" height="100" relative="1" as="geometry">
            <mxPoint x="151" y="110.0000000000002" as="sourcePoint" />
            <mxPoint x="251" y="10.000000000000199" as="targetPoint" />
            <Array as="points">
              <mxPoint x="1" y="160.0000000000002" />
              <mxPoint x="1" y="169.0000000000002" />
            </Array>
          </mxGeometry>
        </mxCell>
        <mxCell id="9OUrm7MxRyDZbP5OYTRy-247" value="트레이너 검색" style="whiteSpace=wrap;rounded=1;fillColor=#12AAB5;strokeColor=none;shadow=1;fontColor=#FFFFFF;fontSize=16;" vertex="1" parent="jsKrFUnNUoFfjtstZBAS-245">
          <mxGeometry x="31" y="214.0000000000002" width="120" height="60" as="geometry" />
        </mxCell>
        <mxCell id="9OUrm7MxRyDZbP5OYTRy-248" value="" style="edgeStyle=elbowEdgeStyle;elbow=vertical;rounded=0;fontColor=#000000;endArrow=none;endFill=0;strokeWidth=8;strokeColor=#23445D;exitX=0;exitY=0.5;exitDx=0;exitDy=0;entryX=0;entryY=0.5;entryDx=0;entryDy=0;" edge="1" parent="jsKrFUnNUoFfjtstZBAS-245" source="6" target="9OUrm7MxRyDZbP5OYTRy-247">
          <mxGeometry width="100" height="100" relative="1" as="geometry">
            <mxPoint x="61" y="59.99999999999997" as="sourcePoint" />
            <mxPoint x="60.99999999999977" y="130.0000000000002" as="targetPoint" />
            <Array as="points">
              <mxPoint x="1" y="120.0000000000002" />
              <mxPoint x="1" y="62.0000000000002" />
              <mxPoint y="91.0000000000002" />
              <mxPoint y="98.0000000000002" />
              <mxPoint y="132.0000000000002" />
            </Array>
          </mxGeometry>
        </mxCell>
        <mxCell id="jsKrFUnNUoFfjtstZBAS-246" value="" style="group" vertex="1" connectable="0" parent="jsKrFUnNUoFfjtstZBAS-248">
          <mxGeometry x="710" y="129.9999999999998" width="170" height="590.0000000000005" as="geometry" />
        </mxCell>
        <mxCell id="7" value="커뮤니티" style="whiteSpace=wrap;rounded=1;fillColor=#F2931E;strokeColor=none;shadow=1;fontColor=#FFFFFF;fontStyle=1;fontSize=20;" parent="jsKrFUnNUoFfjtstZBAS-246" vertex="1">
          <mxGeometry x="30" width="140" height="60" as="geometry" />
        </mxCell>
        <mxCell id="167" value="" style="edgeStyle=elbowEdgeStyle;elbow=horizontal;rounded=0;fontColor=#000000;endArrow=none;endFill=0;strokeWidth=8;strokeColor=#23445D;entryX=0;entryY=0.5;entryDx=0;entryDy=0;exitX=0;exitY=0.5;exitDx=0;exitDy=0;" parent="jsKrFUnNUoFfjtstZBAS-246" source="7" target="9OUrm7MxRyDZbP5OYTRy-249" edge="1">
          <mxGeometry width="100" height="100" as="geometry">
            <mxPoint x="20" y="160.00000000000077" as="sourcePoint" />
            <mxPoint x="40" y="260.00000000000045" as="targetPoint" />
            <Array as="points">
              <mxPoint y="200.0000000000002" />
            </Array>
          </mxGeometry>
        </mxCell>
        <mxCell id="168" value="" style="edgeStyle=elbowEdgeStyle;elbow=horizontal;rounded=0;fontColor=#000000;endArrow=none;endFill=0;strokeWidth=8;strokeColor=#23445D;entryX=0;entryY=0.5;entryDx=0;entryDy=0;exitX=0;exitY=0.5;exitDx=0;exitDy=0;" parent="jsKrFUnNUoFfjtstZBAS-246" source="7" target="9OUrm7MxRyDZbP5OYTRy-253" edge="1">
          <mxGeometry width="100" height="100" as="geometry">
            <mxPoint x="30" y="160.0000000000003" as="sourcePoint" />
            <mxPoint x="40" y="340.00000000000045" as="targetPoint" />
            <Array as="points">
              <mxPoint y="250.0000000000002" />
            </Array>
          </mxGeometry>
        </mxCell>
        <mxCell id="169" value="" style="edgeStyle=elbowEdgeStyle;elbow=horizontal;rounded=0;fontColor=#000000;endArrow=none;endFill=0;strokeWidth=8;strokeColor=#23445D;exitX=0;exitY=0.5;exitDx=0;exitDy=0;entryX=0;entryY=0.5;entryDx=0;entryDy=0;" parent="jsKrFUnNUoFfjtstZBAS-246" source="7" target="9OUrm7MxRyDZbP5OYTRy-252" edge="1">
          <mxGeometry width="100" height="100" as="geometry">
            <mxPoint x="30" y="160.0000000000003" as="sourcePoint" />
            <mxPoint x="40" y="580.0000000000002" as="targetPoint" />
            <Array as="points">
              <mxPoint y="380.0000000000002" />
            </Array>
          </mxGeometry>
        </mxCell>
        <mxCell id="170" value="" style="edgeStyle=elbowEdgeStyle;elbow=horizontal;rounded=0;fontColor=#000000;endArrow=none;endFill=0;strokeWidth=8;strokeColor=#23445D;exitX=0;exitY=0.5;exitDx=0;exitDy=0;entryX=0;entryY=0.5;entryDx=0;entryDy=0;" parent="jsKrFUnNUoFfjtstZBAS-246" source="7" target="9OUrm7MxRyDZbP5OYTRy-251" edge="1">
          <mxGeometry width="100" height="100" as="geometry">
            <mxPoint x="30" y="160.0000000000003" as="sourcePoint" />
            <mxPoint x="40" y="500.0000000000002" as="targetPoint" />
            <Array as="points">
              <mxPoint y="330.0000000000002" />
            </Array>
          </mxGeometry>
        </mxCell>
        <mxCell id="171" value="" style="edgeStyle=elbowEdgeStyle;elbow=horizontal;rounded=0;fontColor=#000000;endArrow=none;endFill=0;strokeWidth=8;strokeColor=#23445D;exitX=0;exitY=0.5;exitDx=0;exitDy=0;entryX=0;entryY=0.5;entryDx=0;entryDy=0;" parent="jsKrFUnNUoFfjtstZBAS-246" source="7" target="9OUrm7MxRyDZbP5OYTRy-250" edge="1">
          <mxGeometry width="100" height="100" as="geometry">
            <mxPoint x="30" y="160.0000000000003" as="sourcePoint" />
            <mxPoint x="40" y="420.0000000000002" as="targetPoint" />
            <Array as="points">
              <mxPoint y="300.0000000000002" />
            </Array>
          </mxGeometry>
        </mxCell>
        <mxCell id="223" value="" style="edgeStyle=elbowEdgeStyle;elbow=vertical;rounded=0;fontColor=#000000;endArrow=none;endFill=0;strokeWidth=8;strokeColor=#23445D;exitX=0;exitY=0.5;exitDx=0;exitDy=0;entryX=0;entryY=0.5;entryDx=0;entryDy=0;" parent="jsKrFUnNUoFfjtstZBAS-246" source="7" target="155" edge="1">
          <mxGeometry width="100" height="100" as="geometry">
            <mxPoint x="100" y="130.0000000000002" as="sourcePoint" />
            <mxPoint y="20.0000000000002" as="targetPoint" />
            <Array as="points">
              <mxPoint y="90.0000000000002" />
            </Array>
          </mxGeometry>
        </mxCell>
        <mxCell id="155" value="자유게시판" style="whiteSpace=wrap;rounded=1;fillColor=#12AAB5;strokeColor=none;shadow=1;fontColor=#FFFFFF;fontSize=16;" parent="jsKrFUnNUoFfjtstZBAS-246" vertex="1">
          <mxGeometry x="40" y="110.00000000000043" width="120" height="60" as="geometry" />
        </mxCell>
        <mxCell id="9OUrm7MxRyDZbP5OYTRy-249" value="이벤트" style="whiteSpace=wrap;rounded=1;fillColor=#12AAB5;strokeColor=none;shadow=1;fontColor=#FFFFFF;fontSize=16;" vertex="1" parent="jsKrFUnNUoFfjtstZBAS-246">
          <mxGeometry x="40" y="194.0000000000002" width="120" height="60" as="geometry" />
        </mxCell>
        <mxCell id="9OUrm7MxRyDZbP5OYTRy-250" value="번개 투어" style="whiteSpace=wrap;rounded=1;fillColor=#12AAB5;strokeColor=none;shadow=1;fontColor=#FFFFFF;fontSize=16;" vertex="1" parent="jsKrFUnNUoFfjtstZBAS-246">
          <mxGeometry x="40" y="362.0000000000002" width="120" height="60" as="geometry" />
        </mxCell>
        <mxCell id="9OUrm7MxRyDZbP5OYTRy-251" value="트레이너&#xa;구인구직" style="whiteSpace=wrap;rounded=1;fillColor=#12AAB5;strokeColor=none;shadow=1;fontColor=#FFFFFF;fontSize=16;" vertex="1" parent="jsKrFUnNUoFfjtstZBAS-246">
          <mxGeometry x="40" y="446.0000000000002" width="120" height="60" as="geometry" />
        </mxCell>
        <mxCell id="9OUrm7MxRyDZbP5OYTRy-252" value="대회정보" style="whiteSpace=wrap;rounded=1;fillColor=#12AAB5;strokeColor=none;shadow=1;fontColor=#FFFFFF;fontSize=16;" vertex="1" parent="jsKrFUnNUoFfjtstZBAS-246">
          <mxGeometry x="40" y="530.0000000000005" width="120" height="60" as="geometry" />
        </mxCell>
        <mxCell id="9OUrm7MxRyDZbP5OYTRy-253" value="헬스타그램" style="whiteSpace=wrap;rounded=1;fillColor=#12AAB5;strokeColor=none;shadow=1;fontColor=#FFFFFF;fontSize=16;" vertex="1" parent="jsKrFUnNUoFfjtstZBAS-246">
          <mxGeometry x="40" y="278.0000000000002" width="120" height="60" as="geometry" />
        </mxCell>
        <mxCell id="jsKrFUnNUoFfjtstZBAS-247" value="" style="group" vertex="1" connectable="0" parent="jsKrFUnNUoFfjtstZBAS-248">
          <mxGeometry x="980" y="129.9999999999998" width="167" height="422.0000000000002" as="geometry" />
        </mxCell>
        <mxCell id="8" value="블로그" style="whiteSpace=wrap;rounded=1;fillColor=#F2931E;strokeColor=none;shadow=1;fontColor=#FFFFFF;fontStyle=1;fontSize=20;" parent="jsKrFUnNUoFfjtstZBAS-247" vertex="1">
          <mxGeometry x="27" width="140" height="60" as="geometry" />
        </mxCell>
        <mxCell id="9OUrm7MxRyDZbP5OYTRy-255" value="" style="edgeStyle=elbowEdgeStyle;elbow=horizontal;rounded=0;fontColor=#000000;endArrow=none;endFill=0;strokeWidth=8;strokeColor=#23445D;entryX=0;entryY=0.5;entryDx=0;entryDy=0;exitX=0;exitY=0.5;exitDx=0;exitDy=0;" edge="1" parent="jsKrFUnNUoFfjtstZBAS-247" target="9OUrm7MxRyDZbP5OYTRy-263" source="8">
          <mxGeometry x="-320" width="100" height="100" as="geometry">
            <mxPoint x="80" y="30.0000000000002" as="sourcePoint" />
            <mxPoint x="40" y="280.00000000000045" as="targetPoint" />
            <Array as="points">
              <mxPoint y="220.0000000000002" />
            </Array>
          </mxGeometry>
        </mxCell>
        <mxCell id="9OUrm7MxRyDZbP5OYTRy-256" value="" style="edgeStyle=elbowEdgeStyle;elbow=horizontal;rounded=0;fontColor=#000000;endArrow=none;endFill=0;strokeWidth=8;strokeColor=#23445D;entryX=0;entryY=0.5;entryDx=0;entryDy=0;exitX=0;exitY=0.5;exitDx=0;exitDy=0;" edge="1" parent="jsKrFUnNUoFfjtstZBAS-247" target="9OUrm7MxRyDZbP5OYTRy-267" source="8">
          <mxGeometry x="-320" width="100" height="100" as="geometry">
            <mxPoint x="80" y="30.0000000000002" as="sourcePoint" />
            <mxPoint x="40" y="360.00000000000045" as="targetPoint" />
            <Array as="points">
              <mxPoint y="270.0000000000002" />
            </Array>
          </mxGeometry>
        </mxCell>
        <mxCell id="9OUrm7MxRyDZbP5OYTRy-259" value="" style="edgeStyle=elbowEdgeStyle;elbow=horizontal;rounded=0;fontColor=#000000;endArrow=none;endFill=0;strokeWidth=8;strokeColor=#23445D;entryX=0;entryY=0.5;entryDx=0;entryDy=0;exitX=0;exitY=0.5;exitDx=0;exitDy=0;" edge="1" parent="jsKrFUnNUoFfjtstZBAS-247" target="9OUrm7MxRyDZbP5OYTRy-264" source="8">
          <mxGeometry x="-320" width="100" height="100" as="geometry">
            <mxPoint x="80" y="30.0000000000002" as="sourcePoint" />
            <mxPoint x="40" y="440.0000000000002" as="targetPoint" />
            <Array as="points">
              <mxPoint y="320.0000000000002" />
            </Array>
          </mxGeometry>
        </mxCell>
        <mxCell id="9OUrm7MxRyDZbP5OYTRy-260" value="" style="edgeStyle=elbowEdgeStyle;elbow=vertical;rounded=0;fontColor=#000000;endArrow=none;endFill=0;strokeWidth=8;strokeColor=#23445D;exitX=0;exitY=0.5;exitDx=0;exitDy=0;entryX=0;entryY=0.5;entryDx=0;entryDy=0;" edge="1" parent="jsKrFUnNUoFfjtstZBAS-247" target="9OUrm7MxRyDZbP5OYTRy-262" source="8">
          <mxGeometry x="-320" width="100" height="100" as="geometry">
            <mxPoint x="30" y="49.99999999999997" as="sourcePoint" />
            <mxPoint y="40.0000000000002" as="targetPoint" />
            <Array as="points">
              <mxPoint y="110.0000000000002" />
            </Array>
          </mxGeometry>
        </mxCell>
        <mxCell id="9OUrm7MxRyDZbP5OYTRy-262" value="새로나온 &#xa;기구 소개" style="whiteSpace=wrap;rounded=1;fillColor=#12AAB5;strokeColor=none;shadow=1;fontColor=#FFFFFF;fontSize=16;" vertex="1" parent="jsKrFUnNUoFfjtstZBAS-247">
          <mxGeometry x="37" y="110.00000000000043" width="120" height="60" as="geometry" />
        </mxCell>
        <mxCell id="9OUrm7MxRyDZbP5OYTRy-263" value="영양제 정보" style="whiteSpace=wrap;rounded=1;fillColor=#12AAB5;strokeColor=none;shadow=1;fontColor=#FFFFFF;fontSize=16;" vertex="1" parent="jsKrFUnNUoFfjtstZBAS-247">
          <mxGeometry x="37" y="194.0000000000002" width="120" height="60" as="geometry" />
        </mxCell>
        <mxCell id="9OUrm7MxRyDZbP5OYTRy-264" value="운동 유형 검사" style="whiteSpace=wrap;rounded=1;fillColor=#12AAB5;strokeColor=none;shadow=1;fontColor=#FFFFFF;fontSize=16;" vertex="1" parent="jsKrFUnNUoFfjtstZBAS-247">
          <mxGeometry x="37" y="362.0000000000002" width="120" height="60" as="geometry" />
        </mxCell>
        <mxCell id="9OUrm7MxRyDZbP5OYTRy-267" value="식단 칼로리 &#xa;계산" style="whiteSpace=wrap;rounded=1;fillColor=#12AAB5;strokeColor=none;shadow=1;fontColor=#FFFFFF;fontSize=16;" vertex="1" parent="jsKrFUnNUoFfjtstZBAS-247">
          <mxGeometry x="36.99999999999977" y="278.0000000000002" width="120" height="60" as="geometry" />
        </mxCell>
      </root>
    </mxGraphModel>
  </diagram>
  <diagram id="X14ZHk7GTMq-tYTEMheq" name="Page-2">
    <mxGraphModel dx="446" dy="738" grid="1" gridSize="10" guides="1" tooltips="1" connect="1" arrows="1" fold="1" page="1" pageScale="1" pageWidth="827" pageHeight="1169" math="0" shadow="0">
      <root>
        <mxCell id="fC83U-zFmLvRUyAx1Zhx-0" />
        <mxCell id="fC83U-zFmLvRUyAx1Zhx-1" parent="fC83U-zFmLvRUyAx1Zhx-0" />
      </root>
    </mxGraphModel>
  </diagram>
</mxfile>
